HIERARCHY
ROOT Hips
{
	OFFSET 0.000000 0.000000 0.000000
	CHANNELS 6 Xposition Yposition Zposition Zrotation Yrotation Xrotation 
	JOINT LHipJoint
	{
		OFFSET 0.000000 0.000000 0.000000
		CHANNELS 3 Zrotation Yrotation Xrotation
		JOINT LeftUpLeg
		{
			OFFSET 1.363060 -1.794630 0.839290
			CHANNELS 3 Zrotation Yrotation Xrotation
			JOINT LeftLeg
			{
				OFFSET 2.448110 -6.726130 0.000000
				CHANNELS 3 Zrotation Yrotation Xrotation
				JOINT LeftFoot
				{
					OFFSET 2.562200 -7.039590 0.000000
					CHANNELS 3 Zrotation Yrotation Xrotation
					JOINT LeftToeBase
					{
						OFFSET 0.157640 -0.433110 2.322550
						CHANNELS 3 Zrotation Yrotation Xrotation
						End Site
						{
							OFFSET 0.000000 0.000000 0.000000
						}
					}
				}
			}
		}
	}
	JOINT RHipJoint
	{
		OFFSET 0.000000 0.000000 0.000000
		CHANNELS 3 Zrotation Yrotation Xrotation
		JOINT RightUpLeg
		{
			OFFSET -1.305520 -1.794630 0.839290
			CHANNELS 3 Zrotation Yrotation Xrotation
			JOINT RightLeg
			{
				OFFSET -2.542530 -6.985550 0.000000
				CHANNELS 3 Zrotation Yrotation Xrotation
				JOINT RightFoot
				{
					OFFSET -2.568260 -7.056230 0.000000
					CHANNELS 3 Zrotation Yrotation Xrotation
					JOINT RightToeBase
					{
						OFFSET -0.164730 -0.452590 2.363150
						CHANNELS 3 Zrotation Yrotation Xrotation
						End Site
						{
							OFFSET 0.000000 0.000000 0.000000
						}
					}
				}
			}
		}
	}
	JOINT LowerBack
	{
		OFFSET 0.000000 0.000000 0.000000
		CHANNELS 3 Zrotation Yrotation Xrotation
		JOINT Spine
		{
			OFFSET 0.028270 2.035590 -0.193380
			CHANNELS 3 Zrotation Yrotation Xrotation
			JOINT Spine1
			{
				OFFSET 0.056720 2.048850 -0.042750
				CHANNELS 3 Zrotation Yrotation Xrotation
				JOINT Neck
				{
					OFFSET 0.000000 0.000000 0.000000
					CHANNELS 3 Zrotation Yrotation Xrotation
					JOINT Neck1
					{
						OFFSET -0.054170 1.746240 0.172020
						CHANNELS 3 Zrotation Yrotation Xrotation
						JOINT Head
						{
							OFFSET 0.104070 1.761360 -0.123970
							CHANNELS 3 Zrotation Yrotation Xrotation
							End Site
							{
								OFFSET 0.000000 0.000000 0.000000
							}
						}
					}
				}
				JOINT LeftShoulder
				{
					OFFSET 0.000000 0.000000 0.000000
					CHANNELS 3 Zrotation Yrotation Xrotation
					JOINT LeftArm
					{
						OFFSET 3.362410 1.200890 -0.311210
						CHANNELS 3 Zrotation Yrotation Xrotation
						JOINT LeftForeArm
						{
							OFFSET 4.983000 -0.000000 -0.000000
							CHANNELS 3 Zrotation Yrotation Xrotation
							JOINT LeftHand
							{
								OFFSET 3.483560 -0.000000 -0.000000
								CHANNELS 3 Zrotation Yrotation Xrotation
								JOINT LeftFingerBase
								{
									OFFSET 0.000000 0.000000 0.000000
									CHANNELS 3 Zrotation Yrotation Xrotation
									JOINT LeftHandIndex1
									{
										OFFSET 0.715260 -0.000000 -0.000000
										CHANNELS 3 Zrotation Yrotation Xrotation
										End Site
										{
											OFFSET 0.000000 0.000000 0.000000
										}
									}
								}
								JOINT LThumb
								{
									OFFSET 0.000000 0.000000 0.000000
									CHANNELS 3 Zrotation Yrotation Xrotation
									End Site
									{
										OFFSET 0.000000 0.000000 0.000000
									}
								}
							}
						}
					}
				}
				JOINT RightShoulder
				{
					OFFSET 0.000000 0.000000 0.000000
					CHANNELS 3 Zrotation Yrotation Xrotation
					JOINT RightArm
					{
						OFFSET -3.136600 1.374050 -0.404650
						CHANNELS 3 Zrotation Yrotation Xrotation
						JOINT RightForeArm
						{
							OFFSET -5.241900 -0.000000 -0.000000
							CHANNELS 3 Zrotation Yrotation Xrotation
							JOINT RightHand
							{
								OFFSET -3.444170 -0.000000 -0.000000
								CHANNELS 3 Zrotation Yrotation Xrotation
								JOINT RightFingerBase
								{
									OFFSET 0.000000 0.000000 0.000000
									CHANNELS 3 Zrotation Yrotation Xrotation
									JOINT RightHandIndex1
									{
										OFFSET -0.622530 -0.000000 -0.000000
										CHANNELS 3 Zrotation Yrotation Xrotation
										End Site
										{
											OFFSET 0.000000 0.000000 0.000000
										}
									}
								}
								JOINT RThumb
								{
									OFFSET 0.000000 0.000000 0.000000
									CHANNELS 3 Zrotation Yrotation Xrotation
									End Site
									{
										OFFSET 0.000000 0.000000 0.000000
									}
								}
							}
						}
					}
				}
			}
		}
	}
}
MOTION
Frames: 8
Frame Time: 0.008333
1.050392 17.813637 25.324648 0.490529 2.398308 0.518695 -1.360010 6.220806 5.877401 -21.812261 -4.409740 -3.897917 -0.584372 4.152705 19.336731 1.668008 -6.376068 -0.179211 0.063118 1.595587 4.389845 0.943362 -4.226351 2.828961 16.720280 11.762679 -31.956575 -4.168235 -11.896577 38.149035 3.579782 -13.625971 4.835401 -0.039717 1.284433 -3.531854 -2.933896 -1.753618 4.710333 3.750136 -2.342467 5.056615 3.478005 -1.247203 -7.691546 -5.807373 -3.457886 -15.726442 3.498219 -3.609279 17.789983 0.169060 -1.470064 8.800718 -7.125795 2.543990 -1.141858 -77.630586 -5.153219 30.960034 14.747402 -24.416895 -3.291099 -0.309872 -0.734761 -7.184649 29.450458 22.990655 12.983579 -7.125000 0.000000 0.000000 0.692280 56.806954 0.202188 11.144290 -2.107161 -2.516738 75.986747 -0.595253 3.973215 -10.120910 21.524715 -2.360302 0.911683 -0.255336 6.356705 -15.784429 17.995849 -5.326985 7.125000 0.000000 0.000000 7.428747 -11.288131 5.877470
1.049163 17.815928 25.416973 0.519341 2.589734 0.675720 -1.387681 6.244277 5.921746 -21.756993 -4.439358 -3.518818 -0.660257 3.984102 18.880995 1.692851 -6.524532 -0.072071 0.092553 1.948360 5.363336 1.020603 -4.205572 2.767482 16.528396 11.877690 -32.016799 -3.798870 -11.510604 36.584524 3.769817 -14.266634 5.399810 -0.034951 1.205098 -3.313361 -2.985203 -1.836987 4.705414 3.767660 -2.450955 4.879685 3.522597 -1.304830 -7.792986 -5.813642 -3.460305 -15.667004 3.538972 -3.623626 17.858936 0.182179 -1.470793 8.810754 -7.125004 2.542096 -1.135110 -77.564275 -5.165937 31.059804 14.838059 -24.551990 -3.330226 -0.313628 -0.741133 -7.301150 29.805988 23.231680 13.290938 -7.125000 0.000000 0.000000 1.033840 57.158662 0.309164 11.148078 -2.115184 -2.527451 75.982464 -0.926986 3.987684 -10.119675 21.542142 -2.378822 0.892940 -0.211071 5.988376 -15.324432 17.088664 -4.905754 7.125000 0.000000 0.000000 7.715642 -12.298794 5.947610
1.050936 17.813215 25.510339 0.786497 2.818449 0.844423 -1.414860 6.259111 5.962763 -21.985242 -4.440077 -3.084352 -0.730863 3.801279 18.421207 1.698893 -6.616825 -0.029860 0.107126 2.109013 5.807059 1.085228 -4.182466 2.708324 16.073170 11.869145 -32.111493 -3.437267 -11.128154 35.013550 3.927509 -14.838834 6.073703 -0.038581 1.263336 -3.473726 -3.220365 -1.932416 4.600188 3.681999 -2.591821 4.827216 3.620100 -1.376511 -7.752327 -5.832729 -3.481632 -15.805434 3.617376 -3.643916 17.927144 0.207751 -1.471121 8.855093 -7.122545 2.541953 -1.132194 -77.479126 -5.384926 31.232383 14.900442 -24.640828 -3.357974 -0.313835 -0.740444 -7.556697 29.969144 23.085266 13.299733 -7.125000 0.000000 0.000000 1.257067 57.032780 0.369585 11.156116 -2.115645 -2.526055 76.017916 -1.023367 3.820592 -10.020054 21.386415 -2.342677 0.891729 -0.195846 5.560789 -15.170092 16.818994 -4.777021 7.125000 0.000000 0.000000 7.810456 -12.598093 5.975935
1.053898 17.808520 25.604117 1.147999 3.061923 1.017749 -1.441844 6.270525 6.002463 -22.325717 -4.429358 -2.627971 -0.799379 3.612828 17.959814 1.697494 -6.686884 -0.013351 0.115816 2.193618 6.041082 1.144860 -4.158441 2.650085 15.513704 11.811692 -32.219832 -3.078735 -10.747097 33.440018 4.072397 -15.383934 6.790933 -0.045533 1.376031 -3.784057 -3.528302 -2.032618 4.455257 3.555496 -2.745503 4.824012 3.738547 -1.453756 -7.655419 -5.856889 -3.510443 -16.022187 3.710683 -3.666558 17.995056 0.238251 -1.471289 8.913010 -7.119426 2.542503 -1.130796 -77.386520 -5.685563 31.433782 14.951634 -24.711357 -3.381217 -0.312638 -0.736961 -7.867283 30.056152 22.785492 13.190347 -7.125000 0.000000 0.000000 1.433453 56.717852 0.411579 11.165836 -2.113114 -2.519865 76.069097 -1.026588 3.581632 -9.881488 21.162148 -2.284894 0.897458 -0.192117 5.109744 -15.136742 16.801673 -4.764070 7.125000 0.000000 0.000000 7.829238 -12.615810 5.987709
1.053263 17.801792 25.698884 1.272076 3.226591 1.143575 -1.464538 6.300319 6.057811 -22.407388 -4.178531 -2.222543 -0.870892 3.415460 17.452567 1.676140 -6.608491 -0.072617 0.083136 1.824195 5.021078 1.221260 -4.145943 2.596420 15.219532 11.849191 -32.195697 -2.743595 -10.337984 31.910721 4.202049 -15.863926 7.366328 -0.054159 1.497408 -4.118655 -3.670928 -2.120313 4.349259 3.556035 -2.866790 4.834903 3.822181 -1.516938 -7.576418 -5.877769 -3.505015 -16.097351 3.730447 -3.648838 17.922943 0.249348 -1.464449 8.905185 -7.120022 2.533789 -1.129636 -77.294369 -5.985281 31.636720 14.982986 -24.753416 -3.393700 -0.307222 -0.741542 -8.119311 29.992567 22.999633 13.267571 -7.125000 0.000000 0.000000 1.306179 56.941993 0.381503 11.168951 -2.115258 -2.519236 76.074511 -1.004938 3.536909 -9.742915 20.925365 -2.194576 0.948313 -0.249369 4.493739 -15.927000 18.360614 -5.509591 7.125000 0.000000 0.000000 7.341954 -10.872126 5.856805
1.052235 17.794926 25.794124 1.379478 3.389281 1.260738 -1.486349 6.332141 6.114138 -22.466507 -3.911214 -1.812313 -0.942772 3.215711 16.938231 1.656289 -6.536494 -0.125651 0.051068 1.454811 4.001337 1.298606 -4.135497 2.542996 14.942573 11.900485 -32.150822 -2.414335 -9.926581 30.394654 4.332419 -16.338926 7.899395 -0.059826 1.575727 -4.334599 -3.798438 -2.203650 4.257792 3.561778 -2.981281 4.823783 3.898729 -1.576624 -7.519823 -5.893925 -3.498556 -16.114618 3.738754 -3.635953 17.837780 0.255717 -1.461238 8.883621 -7.119653 2.523607 -1.127630 -77.199970 -6.236087 31.853697 15.021808 -24.806067 -3.409856 -0.301996 -0.745055 -8.365495 29.931063 23.156690 13.316323 -7.125000 0.000000 0.000000 1.195467 57.102805 0.354236 11.171410 -2.119839 -2.521862 76.082380 -1.034115 3.476194 -9.631551 20.733165 -2.116406 0.998327 -0.302044 3.955778 -16.757906 19.817005 -6.242451 7.125000 0.000000 0.000000 6.826233 -9.232716 5.683462
1.050447 17.788108 25.891646 1.489279 3.573034 1.348015 -1.504891 6.367980 6.169624 -22.503293 -3.648443 -1.353808 -1.015521 3.006051 16.402310 1.653197 -6.561872 -0.112065 0.039462 1.271977 3.497744 1.374465 -4.132014 2.489065 14.654848 11.991443 -32.042093 -2.108999 -9.513647 28.935841 4.473135 -16.812196 8.249400 -0.047940 1.405059 -3.864254 -3.907635 -2.267276 4.233180 3.545051 -3.070332 4.681412 3.949170 -1.622155 -7.583591 -5.884503 -3.500278 -15.859978 3.711935 -3.667185 17.735689 0.243102 -1.481590 8.810734 -7.112256 2.508857 -1.120706 -77.092573 -6.208478 32.150073 15.111346 -24.930780 -3.451367 -0.299585 -0.739169 -8.602397 29.943221 22.777455 13.126200 -7.125000 0.000000 0.000000 1.303789 56.681405 0.372570 11.172839 -2.136386 -2.540765 76.123020 -1.363209 3.244605 -9.675273 20.800222 -2.120829 1.025034 -0.303613 3.930367 -17.482495 20.041962 -6.591860 7.125000 0.000000 0.000000 6.356111 -8.910556 5.326764
1.048433 17.780942 25.988923 1.577020 3.721477 1.434238 -1.523012 6.403659 6.224344 -22.516535 -3.388497 -0.923580 -1.081604 2.811704 15.906643 1.652483 -6.596178 -0.092302 0.033535 1.180726 3.246346 1.451512 -4.128701 2.434063 14.394090 12.125197 -31.930326 -1.808641 -9.090305 27.474436 4.614247 -17.276011 8.556636 -0.040585 1.299937 -3.574552 -3.993462 -2.318089 4.201888 3.529465 -3.139679 4.555355 3.985026 -1.659179 -7.636482 -5.866885 -3.513310 -15.696861 3.676200 -3.703459 17.707752 0.226305 -1.502434 8.774936 -7.106488 2.498518 -1.114282 -77.002328 -6.210156 32.376811 15.192586 -25.043851 -3.489588 -0.298405 -0.731902 -8.790248 29.964834 22.328289 12.903459 -7.125000 0.000000 0.000000 1.435831 56.183062 0.392503 11.173736 -2.149541 -2.555221 76.168760 -1.656074 2.945749 -9.700953 20.839681 -2.125099 1.042349 -0.294799 4.047635 -18.034871 19.938955 -6.764726 7.125000 0.000000 0.000000 5.981735 -8.960672 5.006518
